<svg width="256" height="256" viewBox="0 0 256 256" fill="none" xmlns="http://www.w3.org/2000/svg">
  <defs>
    <linearGradient id="b" x1="60" y1="42" x2="203" y2="216" gradientUnits="userSpaceOnUse">
      <stop stop-color="#67e8f9"/><stop offset=".55" stop-color="#38bdf8"/><stop offset="1" stop-color="#2563eb"/>
    </linearGradient>
    <filter id="s" x="-20%" y="-20%" width="140%" height="140%">
      <feDropShadow dx="0" dy="10" stdDeviation="8" flood-color="#000" flood-opacity=".32"/>
    </filter>
  </defs>
  <rect width="256" height="256" rx="56" fill="#0B1117"/>
  <g filter="url(#s)" stroke="url(#b)" stroke-width="9" stroke-linecap="round" stroke-linejoin="round">
    <path d="M47 194H210"/>
    <path d="M51 162C77 162 78 128 104 128C130 128 128 162 154 162C180 162 181 112 207 112"/>
    <path d="M81 74V139"/>
    <rect x="67" y="93" width="28" height="43" rx="5"/>
    <path d="M128 52V151"/>
    <rect x="113" y="73" width="30" height="61" rx="5"/>
    <path d="M174 62V132"/>
    <rect x="160" y="80" width="28" height="47" rx="5"/>
  </g>
  <ellipse cx="128" cy="194" rx="54" ry="16" stroke="#2563eb" stroke-width="6" opacity=".45"/>
  <path d="M92 177C104 166 115 160 128 160C140 160 151 166 164 177" stroke="#60a5fa" stroke-width="7" stroke-linecap="round" opacity=".9"/>
</svg>